<svg width="10" height="14" viewBox="0 0 10 14" fill="none" xmlns="http://www.w3.org/2000/svg">
<path d="M9.23545 5.87854C9.29243 5.81726 9.31578 5.71062 9.29349 5.61352C9.2712 5.51642 9.20822 5.45061 9.13697 5.44991H6.10637C6.03658 5.44979 5.97433 5.38723 5.9505 5.29315L4.81818 0.824596C4.79435 0.730403 4.73202 0.667725 4.66215 0.667725C4.59228 0.667725 4.52995 0.730403 4.50612 0.824596L3.37388 5.29199C3.34997 5.38595 3.28772 5.44863 3.21802 5.44863H0.166095C0.0951731 5.44863 0.0320321 5.51317 0.00901285 5.60945C-0.0140064 5.70562 0.00804022 5.81226 0.0640484 5.8747L2.57891 8.68094C2.63378 8.74211 2.65623 8.84595 2.63516 8.94096L1.66324 13.323C1.64144 13.4214 1.66632 13.5286 1.72476 13.5887C1.7832 13.6488 1.86198 13.6481 1.91986 13.587L4.56375 10.7921C4.62227 10.7303 4.70203 10.7303 4.76063 10.7921L7.37389 13.5548C7.43282 13.6171 7.51322 13.6166 7.57182 13.5537C7.63043 13.4908 7.65345 13.3803 7.6284 13.2816L6.53061 8.94956C6.50548 8.85025 6.52882 8.73908 6.58807 8.67641L9.23545 5.87854Z" fill="#0D3451"/>
</svg>
